<?xml version="1.0" standalone="no"?>
<!DOCTYPE svg PUBLIC "-//W3C//DTD SVG 20010904//EN"
 "http://www.w3.org/TR/2001/REC-SVG-20010904/DTD/svg10.dtd">
<svg version="1.0" xmlns="http://www.w3.org/2000/svg"
 width="828.000000pt" height="859.000000pt" viewBox="0 0 828.000000 859.000000"
 preserveAspectRatio="xMidYMid meet">

<g transform="translate(0.000000,859.000000) scale(0.100000,-0.100000)"
fill="#000000" stroke="none">
<path d="M3925 7740 c-74 -7 -93 -14 -260 -98 -99 -49 -198 -97 -219 -106 -84
-35 -39 -5 128 85 97 52 169 95 161 97 -8 2 -72 -28 -142 -66 -229 -125 -626
-326 -718 -363 -49 -21 -91 -43 -93 -49 -3 -8 3 -10 19 -5 49 16 511 216 666
289 158 75 208 94 148 58 -57 -35 -597 -324 -641 -343 -45 -21 -62 -46 -21
-33 46 14 275 119 377 172 432 226 703 373 685 370 -5 0 -46 -4 -90 -8z"/>
<path d="M4020 7673 c-265 -160 -748 -415 -890 -468 -83 -31 -105 -45 -74 -45
22 0 196 68 429 168 161 69 233 103 589 276 142 69 263 126 268 126 37 0 -113
-89 -452 -268 -146 -76 -323 -171 -395 -209 -71 -39 -167 -89 -213 -112 -91
-46 -102 -70 -19 -42 250 87 511 211 884 420 273 152 381 207 391 196 3 -3 3
-7 1 -9 -22 -21 -219 -139 -327 -197 -76 -40 -247 -133 -382 -207 -135 -75
-287 -155 -337 -178 -51 -24 -93 -48 -93 -54 0 -17 17 -12 98 29 42 21 205 93
362 161 157 67 373 164 480 215 200 95 257 118 324 131 27 5 37 3 32 -4 -18
-29 -656 -392 -984 -559 -89 -46 -161 -86 -160 -90 3 -12 23 -5 97 31 89 43
469 240 666 344 288 154 424 222 442 222 28 0 8 -13 -217 -139 -228 -129 -663
-348 -808 -407 -95 -39 -109 -48 -92 -59 6 -4 77 25 158 63 81 39 257 120 391
181 134 62 320 150 413 197 93 47 172 83 175 80 11 -11 -153 -106 -467 -271
-206 -108 -631 -335 -639 -342 -2 -1 -1 -6 2 -9 22 -22 490 188 907 406 250
131 332 168 316 142 -19 -31 -927 -561 -963 -562 -15 -1 -58 -39 -51 -45 10
-10 295 122 603 280 154 78 291 146 305 149 l25 7 -24 -18 c-34 -26 -540 -301
-723 -394 -87 -43 -158 -84 -158 -89 0 -6 2 -10 4 -10 2 0 235 115 518 255
464 230 593 289 563 257 -23 -25 -820 -465 -917 -507 -68 -30 -92 -53 -40 -40
15 3 77 30 137 59 61 30 133 64 160 76 28 13 136 62 240 110 188 86 297 132
345 144 24 7 24 7 5 -9 -11 -9 -96 -57 -190 -107 -93 -50 -259 -140 -367 -200
-108 -60 -236 -127 -283 -149 -76 -37 -104 -59 -75 -59 40 0 293 108 585 250
283 138 338 161 290 124 -36 -28 -426 -219 -622 -304 -106 -46 -193 -88 -193
-93 0 -41 313 86 636 258 141 74 267 144 281 155 26 20 121 55 129 47 16 -15
-150 -112 -596 -345 -370 -194 -345 -180 -338 -187 8 -8 253 81 511 184 266
106 397 147 397 123 0 -28 -942 -442 -1006 -442 -8 0 -14 -4 -14 -10 0 -24 74
-5 214 54 207 88 636 259 718 286 141 45 95 11 -102 -77 -228 -102 -516 -224
-570 -242 -75 -24 -155 -60 -158 -71 -6 -18 16 -10 470 173 131 53 267 105
304 117 70 21 115 26 99 11 -18 -16 -775 -360 -837 -380 -40 -13 -54 -37 -15
-26 52 15 259 91 347 127 344 142 521 200 520 171 0 -5 -42 -21 -93 -38 -128
-42 -720 -280 -724 -291 -2 -5 16 -8 39 -6 30 2 38 0 28 -7 -12 -7 -178 -64
-227 -77 -7 -2 -13 -9 -13 -15 0 -17 39 -7 181 45 68 25 212 77 319 117 266
97 337 120 395 126 70 8 52 -6 -90 -65 -66 -28 -167 -72 -225 -98 -198 -88
-425 -176 -573 -223 -81 -25 -147 -50 -145 -56 6 -20 27 -14 433 130 285 101
448 154 470 155 19 0 19 0 0 -13 -11 -8 -83 -40 -160 -72 -77 -32 -187 -78
-245 -103 -58 -25 -160 -68 -226 -96 -67 -29 -129 -60 -138 -69 -10 -9 -22
-17 -27 -17 -6 0 -8 -4 -5 -9 8 -12 83 3 263 55 344 100 474 130 448 105 -23
-21 -418 -144 -635 -197 -129 -31 -237 -59 -239 -61 -3 -2 0 -8 5 -13 18 -18
146 7 331 66 230 73 318 96 357 92 64 -6 -576 -198 -661 -198 -13 0 -23 -4
-23 -10 0 -22 128 1 335 60 137 38 342 76 354 65 10 -11 -22 -24 -164 -69 -77
-25 -201 -56 -275 -70 -167 -31 -280 -64 -280 -83 0 -7 9 -13 20 -13 37 0 172
30 292 66 119 35 160 42 143 25 -24 -23 -311 -131 -417 -157 -65 -16 -118 -33
-118 -38 0 -5 16 -6 37 -3 50 8 30 -7 -37 -28 -53 -17 -86 -35 -64 -35 6 0 82
18 168 40 86 22 171 40 189 40 l32 -1 -25 -13 c-14 -8 -129 -47 -255 -87 -127
-40 -234 -76 -240 -81 -24 -21 57 -4 211 46 162 51 300 83 312 71 3 -3 3 -7 1
-9 -6 -5 -390 -182 -411 -190 -10 -3 -18 -10 -18 -17 0 -7 7 -8 18 -4 39 16
246 75 249 71 6 -5 -162 -85 -254 -121 -40 -16 -73 -32 -73 -37 0 -13 14 -10
93 21 118 45 139 44 44 -3 -136 -66 -143 -82 -17 -37 101 36 160 50 160 40 0
-12 -181 -99 -205 -99 -8 0 -15 -7 -15 -16 0 -11 5 -14 18 -9 28 12 85 25 110
25 43 0 12 -18 -78 -46 -49 -16 -90 -32 -90 -36 0 -12 20 -10 76 6 73 21 134
29 134 18 0 -10 -76 -45 -122 -56 -28 -6 -39 -26 -15 -26 7 0 39 9 71 21 88
31 116 20 39 -15 -81 -37 -83 -65 -5 -66 l27 -1 -24 -19 c-13 -11 -29 -20 -37
-20 -8 0 -14 -6 -14 -14 0 -9 8 -12 25 -8 15 2 25 0 25 -7 0 -7 13 -9 38 -5
30 4 39 2 50 -15 11 -19 10 -22 -13 -31 -40 -15 -29 -28 20 -22 38 4 44 2 39
-11 -5 -14 5 -15 73 -11 71 5 76 4 59 -10 -10 -8 -24 -17 -30 -19 -6 -2 -7 -8
-3 -13 4 -4 42 -3 85 3 84 13 100 7 82 -27 -6 -12 -8 -25 -4 -28 4 -4 9 -2 11
5 2 6 13 21 24 34 21 25 24 57 9 109 -5 19 -7 50 -4 68 5 26 10 31 25 27 12
-4 21 -1 25 10 4 9 13 14 21 11 8 -4 17 4 23 19 9 23 30 35 30 18 0 -5 7 -17
16 -28 13 -17 16 -18 24 -5 5 8 10 35 10 60 l0 45 20 -25 c15 -19 22 -22 31
-13 9 9 16 7 30 -10 16 -20 18 -20 24 -4 9 23 32 22 47 -3 15 -23 38 -27 38
-5 0 25 17 17 30 -15 13 -31 40 -41 40 -15 0 24 17 17 24 -10 3 -13 20 -40 36
-59 17 -19 62 -99 100 -179 38 -79 76 -147 84 -150 8 -3 22 -22 30 -42 12 -28
20 -35 34 -31 16 5 24 -5 47 -59 26 -62 41 -83 51 -72 3 2 -4 27 -15 56 -32
79 -15 61 32 -36 23 -47 48 -88 56 -91 9 -3 11 2 8 14 -17 60 -18 69 -7 52 6
-10 15 -18 20 -18 19 0 9 52 -35 176 -25 70 -43 129 -41 131 5 6 56 -118 148
-362 44 -115 91 -236 105 -267 25 -56 43 -74 43 -43 0 31 17 13 39 -40 28 -67
56 -77 46 -15 -4 22 -5 40 -2 40 3 0 26 -55 52 -122 64 -163 110 -264 125
-273 25 -16 1 68 -81 280 -83 215 -249 662 -249 671 0 37 94 -152 180 -361 31
-77 95 -223 142 -325 47 -102 102 -220 121 -262 20 -43 40 -78 46 -78 21 0 11
46 -33 150 -24 58 -81 193 -125 300 -73 173 -155 388 -176 460 -20 69 25 -20
143 -285 177 -396 281 -618 294 -630 7 -7 9 6 4 45 l-7 55 33 -64 c49 -96 75
-89 47 12 -17 62 -4 53 36 -25 51 -99 58 -108 74 -108 13 0 13 9 -5 80 -5 22
-4 22 14 -6 11 -18 24 -33 29 -35 5 -2 37 -58 72 -124 73 -138 90 -165 102
-165 30 0 -1 92 -165 493 -54 132 -96 241 -93 243 2 2 82 -157 177 -353 178
-369 186 -383 203 -383 28 0 -15 116 -230 624 -63 148 -112 270 -110 272 4 4
277 -548 277 -559 0 -17 143 -297 152 -297 17 0 1 62 -44 168 -89 215 -112
270 -135 332 -14 36 -21 61 -16 57 4 -5 73 -140 153 -300 80 -161 151 -293
158 -295 18 -5 15 36 -7 99 -10 30 -86 223 -168 429 -83 206 -154 386 -157
400 -8 33 189 -368 311 -630 119 -256 113 -244 125 -232 13 13 -9 90 -78 264
-30 76 -54 141 -54 145 1 5 43 -74 94 -175 89 -174 119 -222 138 -222 26 0 -1
83 -116 359 -31 74 -54 136 -51 139 2 3 46 -81 97 -187 51 -105 96 -191 100
-191 19 0 4 52 -48 174 -68 158 -75 176 -69 176 3 0 50 -90 105 -200 55 -110
104 -200 109 -200 40 0 3 123 -119 400 -90 203 -73 187 45 -42 48 -92 91 -171
97 -174 5 -3 14 -2 20 4 15 15 -5 87 -58 210 -54 125 -65 152 -59 152 3 0 32
-55 66 -121 90 -180 158 -301 185 -328 22 -23 24 -24 30 -6 11 27 -10 80 -183
459 -154 339 -223 497 -223 513 0 4 76 -145 170 -332 186 -373 244 -475 263
-456 8 8 8 23 -1 59 -13 47 -25 76 -202 477 -87 198 -175 411 -207 500 -12 35
-12 38 0 25 8 -8 68 -132 133 -275 136 -299 398 -830 413 -840 7 -3 11 2 11
14 0 43 -70 208 -265 631 -88 189 -208 480 -201 487 7 7 111 -203 231 -468 56
-124 140 -303 186 -398 72 -149 85 -170 93 -152 12 28 -1 60 -165 401 -177
369 -322 720 -305 737 9 9 66 -100 288 -547 121 -245 222 -440 225 -434 4 13
-423 878 -481 972 -38 63 -64 77 -58 31 2 -13 23 -82 47 -153 25 -71 41 -126
38 -122 -3 3 -34 58 -67 121 -58 111 -85 139 -78 85 5 -38 122 -328 219 -538
181 -396 224 -494 219 -499 -7 -7 -188 357 -301 607 -108 240 -234 490 -247
490 -14 0 -9 -16 43 -163 60 -164 149 -377 294 -702 105 -235 131 -302 122
-312 -9 -8 -80 125 -244 457 -86 173 -177 352 -202 398 -44 82 -69 106 -57 55
10 -39 171 -410 281 -648 109 -236 195 -432 195 -446 0 -5 -4 -9 -8 -9 -17 0
-252 456 -422 820 -113 242 -142 300 -152 300 -4 0 -8 -2 -8 -5 0 -10 179
-423 290 -670 107 -237 148 -341 137 -351 -11 -11 -348 663 -416 834 -16 39
-36 43 -27 5 4 -14 83 -202 176 -417 202 -469 232 -543 228 -567 -3 -20 -368
692 -493 963 -71 153 -105 211 -105 179 0 -20 73 -186 216 -487 142 -300 174
-371 174 -382 -1 -20 -99 176 -215 428 -156 338 -177 379 -182 363 -5 -14 34
-108 177 -433 152 -345 300 -701 300 -723 0 -5 -5 -5 -12 -1 -14 9 -334 661
-443 904 -90 200 -83 185 -92 177 -3 -4 20 -67 52 -139 32 -73 82 -189 112
-258 97 -220 253 -614 249 -624 -2 -6 -7 -2 -12 9 -4 11 -57 124 -117 250 -99
209 -260 549 -322 683 -27 56 -50 71 -39 25 12 -48 117 -323 273 -713 131
-326 157 -400 136 -379 -11 12 -420 852 -447 919 -16 41 -34 79 -39 85 -15 15
-11 -19 8 -61 54 -128 321 -799 319 -801 -2 -2 -38 72 -81 164 -43 93 -121
253 -173 358 -52 104 -112 230 -134 280 -43 99 -68 135 -68 98 0 -33 40 -137
165 -433 201 -474 251 -600 239 -600 -3 0 -33 60 -68 133 -212 442 -413 855
-422 866 -2 2 -7 2 -10 -2 -5 -5 72 -202 281 -717 104 -256 117 -290 106 -290
-12 0 -133 240 -179 355 -22 55 -75 177 -117 270 -43 94 -94 206 -114 250 -52
113 -58 123 -70 105 -8 -11 -12 -8 -21 15 -21 58 -24 61 -27 34 -4 -25 11 -63
127 -324 65 -147 190 -443 190 -451 0 -36 -165 288 -280 549 -24 54 -47 100
-52 103 -21 13 -4 -42 43 -137 81 -165 211 -505 181 -474 -19 19 -253 533
-404 887 -22 52 -44 65 -34 21 4 -16 68 -169 142 -342 74 -172 133 -315 131
-318 -4 -4 -112 227 -200 427 -82 187 -136 297 -154 312 -15 12 -16 9 -10 -34
8 -55 105 -321 207 -562 39 -93 69 -171 67 -173 -6 -5 -147 303 -217 472 -72
176 -179 387 -199 393 -24 8 -8 -51 88 -313 50 -137 89 -250 88 -252 -2 -1
-54 127 -116 285 -149 375 -139 352 -140 324 -1 -31 75 -264 160 -489 38 -101
69 -186 69 -190 -2 -28 -71 148 -217 552 -61 169 -83 218 -83 185 0 -17 85
-277 156 -477 30 -83 54 -157 54 -165 -1 -19 -21 29 -117 282 -83 220 -226
556 -244 574 -14 15 -11 -15 7 -68 9 -26 14 -49 11 -52 -3 -3 -19 36 -37 85
-18 50 -37 91 -41 91 -13 0 -11 -14 12 -72 34 -86 48 -128 43 -128 -3 0 -10
14 -15 30 -13 35 -34 41 -24 8 4 -13 29 -81 56 -153 26 -71 46 -131 44 -134
-4 -3 -93 177 -116 237 -5 12 -15 22 -22 22 -8 0 -20 18 -27 40 -7 22 -17 40
-22 40 -13 0 -10 -13 23 -102 85 -229 83 -246 -7 -48 -31 69 -62 132 -69 140
-7 8 -20 31 -30 50 -10 19 -24 38 -31 43 -7 4 -27 44 -44 90 -34 87 -57 125
-46 72 6 -28 5 -29 -9 -11 -8 11 -15 26 -15 33 0 7 -5 13 -10 13 -10 0 -6 -32
11 -78 5 -13 9 -33 9 -45 -1 -14 -13 2 -36 46 -19 37 -37 67 -40 67 -4 0 -3
-24 0 -52 8 -59 -4 -56 -24 4 -14 46 -36 65 -26 22 12 -49 -16 -11 -39 53 -11
31 -26 58 -32 61 -20 6 -15 -18 17 -87 17 -36 29 -71 28 -78 -3 -15 -26 25
-53 91 -21 54 -31 38 -11 -20 18 -54 19 -64 7 -64 -5 0 -14 14 -21 30 -7 17
-16 30 -21 30 -10 0 -11 -17 -10 -90 1 -39 -1 -43 -12 -27 -35 53 -33 52 -48
19 -8 -18 -17 -32 -21 -32 -7 0 -9 6 -12 50 -1 8 -7 25 -14 37 -6 12 -12 29
-12 39 0 9 -14 39 -31 66 -33 55 -32 67 5 50 18 -8 28 -7 43 3 17 13 17 15 -7
41 -25 28 -16 26 32 -8 36 -25 41 -23 36 16 -3 31 -2 33 14 25 24 -13 23 0 -4
28 -25 26 -13 31 20 7 46 -32 38 -7 -19 65 -91 112 -62 106 77 -15 75 -66 104
-81 84 -44 -9 16 -8 18 5 14 27 -11 16 10 -27 48 -24 20 -38 37 -31 38 11 0
100 -57 170 -109 64 -48 44 -10 -46 85 -50 54 -89 100 -86 102 5 5 96 -71 162
-135 24 -24 45 -43 48 -43 15 0 -2 22 -66 89 -38 40 -68 75 -65 78 7 8 41 -14
141 -93 54 -41 107 -80 118 -87 12 -7 53 -38 91 -70 37 -32 71 -55 74 -52 4 4
-27 38 -68 78 -194 184 -270 261 -265 265 6 6 66 -39 130 -99 75 -69 197 -169
207 -169 20 0 3 20 -68 80 -42 36 -86 73 -98 82 -11 10 -16 18 -10 18 6 0 56
-37 110 -82 235 -196 256 -198 70 -8 -75 77 -136 145 -136 151 0 14 11 6 106
-78 145 -127 239 -202 242 -192 2 5 -20 31 -49 57 -64 57 -201 213 -194 220 4
5 108 -72 303 -224 50 -40 76 -54 83 -47 11 11 -17 44 -224 262 -183 194 -133
166 108 -59 203 -190 299 -272 303 -260 4 12 -21 40 -286 311 -152 155 -206
219 -140 164 74 -61 316 -273 415 -362 56 -51 107 -93 114 -93 6 0 -73 86
-175 192 -103 105 -184 193 -181 196 6 6 143 -106 370 -302 98 -86 183 -156
187 -156 17 0 6 19 -24 45 -127 105 -387 355 -371 355 17 0 136 -96 331 -268
209 -184 256 -222 271 -222 7 0 11 4 9 8 -1 5 -93 94 -203 199 -243 232 -343
333 -329 333 15 0 160 -118 357 -289 209 -181 215 -186 224 -177 4 4 -35 46
-87 94 -148 134 -335 320 -329 326 7 7 248 -184 359 -283 83 -75 100 -87 100
-72 0 5 -116 115 -257 244 -269 244 -299 274 -291 282 7 7 61 -33 278 -205
326 -258 400 -310 400 -282 0 14 -325 331 -458 448 -67 59 -120 109 -117 112
7 7 61 -32 340 -248 241 -186 285 -217 285 -202 0 5 -118 121 -262 258 -382
362 -404 384 -391 384 15 0 85 -57 322 -263 237 -205 338 -287 354 -287 7 1
-17 27 -53 58 -35 31 -127 116 -203 187 -77 72 -179 166 -227 210 -151 137
-120 131 50 -10 138 -115 329 -267 424 -338 81 -62 116 -79 116 -59 0 12 -74
80 -205 187 -137 112 -320 269 -350 298 -20 20 -20 20 1 6 11 -8 85 -66 165
-130 221 -178 437 -339 454 -339 8 0 15 4 15 9 0 15 -140 142 -386 348 -132
110 -246 209 -254 220 -19 24 -29 31 225 -172 282 -224 490 -363 473 -315 -8
24 -552 511 -762 682 -11 10 -16 18 -9 18 7 0 63 -43 125 -96 116 -98 518
-423 575 -463 31 -23 59 -26 45 -5 -4 6 -142 119 -307 251 -165 132 -320 259
-345 282 -86 81 10 15 242 -167 324 -253 565 -432 583 -432 25 0 -25 52 -207
215 -117 105 -294 262 -393 351 -216 193 -269 244 -261 251 9 9 88 -48 361
-263 258 -203 365 -282 469 -346 67 -42 76 -45 76 -24 0 22 -299 307 -522 499
-114 97 -210 182 -214 189 -4 7 86 -64 200 -156 504 -408 625 -501 635 -490 7
7 -24 35 -251 231 -152 130 -192 169 -155 147 6 -4 84 -65 172 -134 88 -70
173 -135 188 -145 33 -21 49 -12 21 14 -30 28 -359 309 -464 395 -86 72 -368
319 -444 390 l-31 28 40 -22 c60 -33 154 -102 315 -230 210 -168 511 -403 540
-423 27 -19 50 -22 50 -7 0 5 -194 179 -430 386 -237 207 -429 379 -426 381
14 14 202 -120 656 -467 102 -78 136 -98 147 -86 17 17 -89 128 -307 320 -74
66 -144 128 -155 139 l-20 20 29 -18 c16 -10 106 -79 200 -153 94 -74 191
-148 215 -164 50 -31 77 -37 64 -13 -13 23 -238 213 -556 468 -162 130 -300
244 -307 252 -31 38 19 5 190 -125 102 -77 275 -204 385 -283 301 -216 293
-210 253 -156 -25 34 -205 179 -438 354 -221 166 -470 365 -470 377 0 15 56
-21 208 -134 114 -85 303 -223 472 -347 l35 -25 -30 33 c-16 18 -95 80 -175
139 -80 58 -206 152 -281 208 -74 56 -161 116 -192 134 -58 32 -92 34 -81 5 8
-19 284 -241 516 -415 92 -69 168 -128 168 -133 0 -8 -96 60 -260 186 -225
172 -373 268 -388 252 -11 -11 99 -108 338 -300 261 -208 460 -374 460 -382 0
-3 -6 -1 -12 4 -7 6 -112 87 -233 182 -121 94 -275 216 -343 269 -68 53 -132
100 -142 104 -49 18 -20 -16 88 -104 278 -226 735 -639 722 -652 -3 -3 -71 45
-150 106 -394 304 -586 438 -625 438 -26 0 -16 -28 23 -66 20 -20 171 -153
335 -296 163 -143 297 -262 297 -265 0 -11 -60 34 -290 217 -335 266 -450 344
-474 320 -8 -8 -1 -21 30 -48 70 -64 406 -357 477 -416 37 -32 67 -60 67 -63
0 -7 -5 -3 -235 187 -249 207 -305 246 -305 210 0 -10 180 -170 339 -300 57
-47 118 -98 135 -113 40 -37 -109 80 -299 233 -152 123 -190 149 -202 136 -11
-11 48 -66 302 -284 232 -200 501 -448 518 -479 8 -13 6 -13 -20 0 -39 21
-250 177 -418 311 -316 252 -404 311 -421 285 -14 -23 30 -65 521 -503 239
-213 232 -206 218 -206 -7 0 -94 64 -195 143 -544 425 -608 469 -608 422 0 -8
-4 -15 -10 -15 -41 0 32 -76 245 -255 77 -64 215 -185 308 -267 157 -141 203
-191 140 -151 -53 32 -289 214 -473 363 -187 151 -243 190 -256 177 -4 -4 1
-17 12 -28 28 -32 218 -198 394 -344 214 -178 271 -227 266 -233 -3 -2 -22 9
-43 24 -90 68 -325 253 -403 319 -104 87 -220 175 -231 175 -5 0 -9 -6 -9 -14
0 -18 69 -82 303 -279 103 -87 187 -161 187 -163 0 -7 -40 23 -127 93 -352
287 -359 291 -376 274 -8 -8 -1 -21 28 -51 21 -22 36 -40 32 -40 -4 0 -34 20
-68 45 -64 47 -74 51 -84 35 -10 -17 26 -55 268 -283 128 -119 234 -223 236
-230 3 -9 1 -9 -10 -1 -8 6 -93 71 -189 145 -187 145 -238 179 -264 179 -36 0
-11 -33 102 -131 180 -159 381 -349 393 -372 l11 -20 -28 20 c-16 12 -123 96
-239 187 -250 198 -324 251 -338 237 -13 -13 5 -40 72 -109 28 -29 51 -55 51
-58 0 -2 -18 6 -39 18 -61 35 -60 14 2 -51 32 -33 57 -63 57 -66 0 -8 -8 -2
-80 56 -64 51 -122 89 -137 89 -33 0 -4 -43 105 -153 l117 -120 -100 82 c-158
129 -215 163 -215 126 0 -22 -5 -20 -74 30 -105 75 -128 58 -43 -32 68 -74 45
-59 -76 46 -124 108 -167 141 -184 141 -26 0 -12 -27 43 -80 72 -71 206 -221
174 -195 -14 11 -63 54 -110 96 -139 124 -160 136 -160 99 0 -13 60 -84 155
-185 149 -158 182 -197 131 -158 -163 126 -308 233 -316 233 -18 0 -10 -33 16
-67 14 -18 22 -33 19 -33 -4 0 -32 20 -64 45 -99 77 -124 53 -40 -39 55 -61
55 -73 -1 -28 -46 38 -78 54 -90 47 -6 -4 -29 9 -53 28 -51 41 -79 57 -104 57
-10 0 -39 20 -63 45 -24 25 -48 45 -52 45 -23 0 -1 -39 54 -96 62 -65 68 -78
22 -47 -19 12 -30 14 -43 6 -12 -8 -25 -4 -59 20 -29 21 -46 27 -53 20 -11
-11 11 -43 80 -115 41 -44 37 -47 -26 -14 -25 14 -51 22 -59 19 -7 -2 -34 11
-60 31 -51 40 -64 44 -64 21 0 -8 -9 -15 -19 -15 -33 0 -32 -16 5 -64 34 -45
35 -48 17 -61 -10 -8 -28 -11 -40 -8 -18 4 -23 1 -23 -16 0 -15 -6 -21 -21
-21 -17 0 -20 -4 -15 -24 4 -16 0 -29 -14 -41 -27 -24 -25 -36 10 -92 17 -26
30 -55 30 -65 0 -16 -4 -15 -40 8 -43 29 -62 26 -42 -6 15 -24 16 -44 2 -35
-15 9 -11 -27 5 -49 8 -11 15 -35 15 -53 0 -26 -4 -33 -19 -33 -30 0 -31 -24
-3 -79 18 -34 23 -54 16 -59 -6 -4 -13 -15 -17 -24 -7 -20 -49 -25 -43 -5 3 6
7 24 10 40 l6 27 -80 -3 c-81 -4 -100 4 -55 25 41 18 31 37 -15 31 -45 -6 -53
8 -15 25 43 20 31 35 -22 29 -27 -4 -58 -9 -70 -13 -17 -5 -23 -2 -23 10 0 12
-9 16 -36 16 -53 0 -38 17 46 54 47 21 76 40 79 51 2 15 -2 17 -28 12 -26 -6
-31 -4 -31 13 0 15 -7 20 -27 20 l-28 1 28 22 c15 13 27 26 27 29 0 4 -17 8
-37 10 l-38 3 57 32 c66 38 76 50 53 67 -15 10 -9 15 44 38 67 29 78 48 29 48
l-33 1 47 24 c87 46 75 53 -52 30 -25 -4 -3 11 75 52 115 61 138 83 86 83 -51
0 -35 16 36 37 82 24 92 41 26 45 l-48 3 89 31 c95 32 128 60 62 52 -54 -6
-44 7 27 35 45 18 62 30 62 43 0 15 23 27 102 55 56 20 109 42 118 49 25 20
-1 40 -54 41 -44 1 -42 2 63 38 126 43 153 68 61 56 -75 -9 -65 7 23 36 145
48 192 79 118 79 -29 0 -162 -22 -221 -36 -55 -13 47 30 215 91 184 66 210 78
197 91 -11 11 -104 -13 -217 -57 -204 -78 -449 -169 -457 -169 -17 1 72 42
248 115 260 107 319 136 319 153 0 12 -10 14 -57 9 -32 -4 -71 -9 -88 -12 -34
-6 28 26 198 100 61 27 107 53 107 61 0 21 -90 18 -180 -6 -41 -10 -76 -18
-77 -16 -2 2 27 16 64 31 115 48 197 92 222 119 22 23 22 26 7 32 -30 11 -107
-3 -220 -41 -59 -20 -110 -35 -111 -33 -2 2 63 33 144 71 171 79 214 104 206
117 -4 6 -26 8 -56 4 -27 -4 -49 -4 -49 0 0 4 34 22 75 41 47 21 75 40 75 49
0 21 -30 20 -120 -3 -41 -11 -76 -18 -78 -16 -2 2 34 23 80 47 96 50 114 78
49 78 -56 0 -169 -38 -429 -142 -123 -49 -228 -88 -234 -86 -7 3 35 28 93 58
280 143 544 292 599 339 28 24 33 32 22 42 -10 11 -27 10 -90 -5 -42 -10 -96
-22 -120 -27 -52 -12 -190 -73 -403 -180 -163 -81 -258 -123 -266 -116 -2 2
149 86 334 187 186 101 353 194 371 208 93 68 -66 34 -255 -54 -111 -52 -193
-86 -193 -80 0 3 24 18 53 34 372 208 474 267 486 278 13 11 12 14 -4 20 -24
10 -92 -9 -181 -51 -41 -18 -74 -32 -74 -30 0 2 21 18 46 36 31 21 43 34 36
41 -21 21 -104 -15 -486 -211 -66 -33 -124 -61 -130 -61 -6 0 52 37 129 81
208 121 476 284 524 320 30 21 40 34 33 41 -21 21 -109 -15 -416 -172 -372
-190 -635 -313 -621 -291 3 5 76 46 163 92 452 235 716 383 743 415 9 11 9 18
1 26 -15 15 -68 -4 -181 -64 -51 -27 -95 -47 -98 -44 -5 4 19 19 157 96 106
59 147 100 100 100 -16 0 -51 -12 -165 -55 -11 -4 -5 3 14 16 72 51 97 77 85
89 -23 23 -167 -25 -373 -124 -168 -80 -426 -196 -511 -228 -68 -25 24 29 245
147 264 140 495 279 495 298 0 4 -20 7 -45 7 -55 0 -95 -19 -440 -213 -294
-165 -626 -327 -669 -327 -17 0 30 27 359 199 171 90 380 204 465 255 l155 91
-40 8 c-38 8 -53 3 -250 -93 -359 -174 -547 -261 -552 -257 -4 5 17 18 237
137 96 52 355 204 369 216 2 2 -4 4 -15 4 -10 -1 -75 -35 -144 -77z m230
-2812 c-1 -13 -3 -13 -15 3 -19 26 -19 42 0 26 8 -7 15 -20 15 -29z m8 -64
c30 -31 35 -60 6 -36 -29 24 -37 -2 -31 -100 l5 -96 -18 51 c-10 29 -25 63
-34 76 -18 27 -13 38 17 38 17 0 19 5 15 50 -3 28 -2 50 2 50 3 0 21 -15 38
-33z m1252 -1012 c0 -5 -5 -3 -10 5 -5 8 -10 20 -10 25 0 6 5 3 10 -5 5 -8 10
-19 10 -25z"/>
<path d="M3400 7656 c-19 -7 -73 -31 -120 -53 -47 -22 -93 -43 -102 -46 -33
-12 -18 2 32 29 28 15 48 29 45 32 -3 3 -135 -61 -294 -141 -160 -81 -297
-147 -305 -147 -9 0 -16 -4 -16 -10 0 -22 -10 -26 365 137 289 126 556 260
395 199z"/>
<path d="M6130 7126 c0 -2 8 -10 18 -17 15 -13 16 -12 3 4 -13 16 -21 21 -21
13z"/>
<path d="M6170 7096 c0 -2 8 -10 18 -17 15 -13 16 -12 3 4 -13 16 -21 21 -21
13z"/>
<path d="M6210 7067 c0 -3 33 -31 73 -63 39 -32 66 -51 59 -43 -14 19 -132
112 -132 106z"/>
<path d="M6360 6946 c0 -2 8 -10 18 -17 15 -13 16 -12 3 4 -13 16 -21 21 -21
13z"/>
<path d="M2040 6676 c0 -13 -7 -29 -15 -36 -13 -11 -15 -73 -16 -439 -1 -453
-10 -498 -28 -141 -12 226 -38 553 -47 583 -3 9 -10 17 -15 17 -5 0 -9 -78 -9
-187 0 -105 -4 -181 -9 -173 -4 8 -14 74 -21 146 -13 135 -20 162 -39 150 -8
-5 -11 -130 -11 -428 0 -232 -2 -419 -5 -416 -3 3 -15 129 -26 279 -21 297
-44 523 -54 539 -21 35 -25 -20 -26 -387 -1 -234 -5 -386 -9 -368 -5 17 -21
187 -36 380 -14 192 -30 358 -34 370 -8 19 -9 19 -9 -4 -1 -13 6 -98 14 -190
31 -349 75 -1001 75 -1122 0 -173 11 -339 23 -339 5 0 7 62 3 163 -12 316 -18
1412 -8 1402 21 -22 112 -1315 112 -1595 0 -11 5 -20 11 -20 7 0 9 44 5 143
-10 248 -15 1525 -6 1472 22 -127 42 -498 50 -893 5 -284 11 -437 18 -444 8
-8 13 -3 18 17 8 33 -3 477 -16 650 -12 153 -13 702 -1 690 14 -17 53 -644 67
-1103 14 -418 24 -212 24 472 0 690 11 909 24 483 3 -122 15 -346 26 -497 11
-151 25 -366 32 -477 7 -112 16 -203 20 -203 4 0 9 64 9 143 2 187 15 125 25
-116 4 -98 11 -180 16 -183 15 -9 8 203 -27 821 -15 260 -20 513 -10 503 9 -9
33 -333 45 -598 20 -465 23 -515 31 -535 12 -32 10 167 -6 445 -14 246 -21
889 -9 878 16 -17 79 -745 93 -1091 5 -103 11 -190 14 -193 3 -3 3 228 0 513
-3 285 -2 515 2 510 12 -11 30 -256 56 -737 12 -234 26 -429 32 -435 6 -7 7
205 4 605 -4 383 -2 598 4 570 11 -55 78 -1087 79 -1218 0 -7 5 -10 10 -7 6 4
10 226 10 632 0 345 2 624 4 622 3 -3 12 -139 20 -304 39 -745 50 -915 59
-915 6 0 7 61 3 168 -28 692 -32 925 -16 887 8 -21 66 -730 76 -953 4 -73 11
-135 17 -139 7 -4 8 36 3 123 -4 71 -11 201 -16 289 -10 175 -13 812 -4 803 5
-6 17 -146 60 -735 15 -210 32 -379 36 -377 4 3 9 141 10 307 1 293 1 297 9
142 5 -88 13 -252 17 -365 9 -199 9 -194 10 188 1 215 6 392 11 392 4 0 11
-39 14 -87 16 -267 51 -669 58 -677 5 -6 9 175 9 420 0 236 4 422 9 414 4 -8
13 -118 20 -245 11 -206 18 -328 37 -593 3 -45 10 -80 15 -76 5 3 10 182 11
417 1 403 1 407 10 197 12 -312 34 -659 42 -667 17 -17 21 30 26 285 l6 277 2
-227 c1 -144 6 -228 12 -228 6 0 11 149 12 423 1 458 1 458 38 -103 11 -167
25 -309 30 -314 6 -6 11 -8 12 -5 1 2 5 155 8 339 3 184 8 328 11 320 4 -8 12
-179 19 -380 6 -201 14 -375 17 -387 9 -39 23 -25 24 25 1 79 17 18 18 -69 1
-41 5 -79 10 -85 5 -5 13 -69 17 -141 4 -73 11 -133 15 -133 5 0 9 9 9 20 0
14 6 20 18 18 15 -3 18 10 25 97 19 238 24 219 26 -85 1 -168 4 -315 7 -328 4
-14 12 -21 20 -18 10 4 14 -3 14 -24 0 -16 4 -31 9 -34 14 -9 21 31 21 119 0
55 3 75 10 65 5 -8 10 -52 10 -97 0 -49 4 -83 10 -83 6 0 10 4 10 9 0 5 8 8
18 7 15 -1 18 18 24 209 11 304 15 305 16 3 1 -147 6 -269 11 -272 4 -3 11 72
15 167 10 248 26 236 26 -21 0 -135 4 -212 10 -212 6 0 10 30 10 70 0 40 4 70
10 70 6 0 10 -15 11 -32 2 -69 33 -119 41 -66 2 13 8 22 13 20 6 -1 13 14 16
35 5 37 6 37 16 13 12 -28 17 -22 32 45 5 22 9 30 10 18 3 -60 27 -70 37 -16
6 33 8 35 15 15 5 -14 14 -20 24 -16 11 5 15 0 15 -18 0 -28 25 -67 36 -56 4
4 9 30 12 58 6 65 33 85 52 39 16 -38 34 -32 38 13 4 41 31 60 39 28 12 -46
52 -6 53 53 0 25 5 37 14 37 8 0 17 6 20 13 5 10 7 10 12 0 7 -17 40 -17 51 0
5 7 10 -5 14 -33 4 -25 3 -49 -2 -54 -5 -6 -9 -25 -9 -42 0 -38 -14 -51 -35
-34 -8 7 -15 9 -16 4 -1 -5 -2 -18 -3 -29 0 -13 -8 -19 -19 -18 -15 1 -17 -4
-12 -25 l7 -27 -29 28 c-43 40 -70 35 -38 -7 10 -13 11 -23 5 -31 -6 -7 2 -28
26 -63 33 -50 35 -62 4 -42 -9 6 -17 5 -22 -3 -5 -8 -18 -1 -43 23 -32 31 -35
32 -35 13 0 -12 3 -24 8 -27 10 -6 74 -96 69 -96 -3 0 -30 26 -61 58 -75 77
-73 46 4 -53 33 -43 60 -80 60 -84 -1 -3 -32 28 -70 69 -72 78 -92 78 -40 0
16 -24 27 -46 25 -48 -2 -3 -24 17 -49 44 -47 53 -67 55 -42 5 27 -52 18 -47
-54 30 -38 41 -69 67 -69 59 0 -21 15 -45 93 -144 37 -48 66 -90 62 -93 -7 -7
-123 108 -174 172 -59 74 -34 9 29 -74 34 -45 59 -84 57 -87 -3 -3 -49 47
-103 111 -53 63 -99 115 -101 115 -12 0 1 -23 42 -76 78 -101 71 -102 -33 -7
-55 51 -106 100 -113 108 -12 14 -30 12 -30 -4 0 -5 31 -51 68 -102 126 -175
102 -157 -75 54 -68 81 -126 147 -130 147 -16 0 16 -51 127 -203 67 -92 120
-170 118 -173 -8 -7 -126 122 -218 240 -47 60 -93 118 -102 130 -9 11 -20 18
-24 14 -3 -4 31 -55 77 -113 115 -145 172 -225 166 -231 -6 -6 -185 207 -297
353 -47 62 -91 112 -99 112 -8 1 -11 -5 -7 -15 10 -27 -10 -6 -49 51 -21 30
-42 55 -47 55 -13 0 -10 -12 11 -43 10 -16 17 -37 14 -46 -5 -18 139 -220 275
-386 36 -44 51 -66 33 -50 -40 36 -237 280 -346 430 -44 59 -81 102 -83 96 -5
-16 20 -57 199 -319 142 -206 201 -302 157 -252 -7 9 -116 153 -242 320 -252
336 -243 326 -251 318 -6 -6 226 -330 340 -473 98 -123 120 -164 50 -90 -31
33 -88 103 -125 156 -61 85 -299 399 -321 423 -5 5 -12 7 -15 3 -4 -3 85 -129
198 -279 252 -335 350 -480 335 -494 -12 -12 -215 247 -412 526 -176 249 -249
340 -253 317 -5 -23 29 -80 134 -223 166 -226 320 -439 343 -474 61 -94 -99
99 -277 335 -250 330 -350 455 -362 455 -35 0 21 -83 259 -385 224 -285 356
-464 347 -473 -19 -19 -299 324 -556 682 -118 164 -140 189 -140 163 0 -21 65
-115 215 -312 66 -88 171 -225 231 -305 154 -202 206 -278 202 -291 -6 -18
-105 96 -340 389 -229 286 -414 502 -429 502 -36 0 28 -88 382 -525 168 -208
339 -444 339 -469 0 -30 -288 292 -448 502 -67 87 -273 335 -358 431 -2 2 -4
-3 -4 -11 0 -21 84 -133 256 -343 171 -209 267 -332 284 -365 11 -22 11 -23
-3 -10 -8 8 -111 130 -228 270 -329 393 -344 410 -347 401 -3 -9 215 -292 394
-511 43 -52 65 -84 49 -70 -37 33 -262 290 -455 519 -85 101 -156 178 -158
172 -2 -6 7 -25 20 -43 21 -30 209 -251 386 -455 77 -87 362 -463 362 -476 0
-37 -202 176 -452 478 -277 333 -342 408 -346 395 -6 -16 37 -74 176 -238 309
-363 540 -657 528 -670 -12 -12 -278 268 -487 513 -237 277 -369 425 -381 425
-13 0 -9 -29 9 -58 29 -46 178 -226 388 -467 244 -282 285 -330 285 -341 0
-15 -120 108 -220 226 -53 63 -166 189 -251 280 -85 91 -175 190 -201 220 -28
32 -48 48 -48 39 0 -9 26 -46 58 -82 137 -159 342 -389 416 -467 104 -110 281
-329 273 -337 -15 -14 -361 327 -543 534 -179 202 -291 319 -299 311 -8 -7 72
-103 210 -253 173 -186 484 -539 480 -544 -7 -7 -224 199 -439 417 -213 215
-302 296 -317 286 -17 -10 23 -60 217 -266 242 -258 278 -298 267 -298 -4 0
-109 95 -233 211 -243 228 -381 349 -399 349 -36 0 21 -64 308 -347 328 -323
557 -560 549 -568 -3 -3 -54 38 -114 91 -60 53 -192 167 -294 252 -102 86
-232 198 -290 248 -269 234 -362 272 -204 84 42 -50 179 -188 305 -306 126
-119 229 -218 229 -222 0 -3 -10 3 -22 14 -134 118 -403 330 -552 432 -84 58
-116 73 -116 54 0 -11 343 -297 585 -487 209 -165 338 -273 343 -286 7 -18
-16 -8 -69 29 -52 37 -518 406 -764 607 -153 125 -244 189 -253 180 -4 -4 3
-14 15 -22 73 -49 399 -315 518 -422 77 -69 199 -179 270 -243 158 -141 194
-178 174 -178 -8 0 -91 57 -184 127 -276 206 -849 603 -870 603 -20 0 7 -36
78 -102 l82 -78 -79 50 c-43 27 -82 50 -87 50 -22 0 -5 -44 36 -94 25 -31 45
-58 45 -61 0 -3 -14 1 -30 10 -92 48 32 -99 210 -247 36 -30 162 -126 281
-214 120 -87 265 -203 323 -256 59 -54 112 -98 119 -98 17 0 143 -116 135
-125 -13 -13 -74 30 -341 243 -264 211 -631 498 -712 558 -33 24 -37 25 -25 7
8 -12 119 -102 245 -200 127 -98 347 -273 490 -387 267 -214 354 -271 377
-248 10 10 -7 32 -87 110 -208 201 -383 358 -519 467 -233 185 -526 459 -526
491 0 10 25 -2 77 -38 123 -84 263 -200 565 -466 357 -315 374 -329 427 -364
53 -33 61 -34 61 -8 0 27 -245 245 -546 485 -261 209 -478 395 -469 403 2 3
31 -12 62 -33 118 -78 532 -372 663 -470 186 -140 260 -181 260 -143 0 6 -55
65 -122 130 l-123 119 120 -89 c170 -127 225 -154 225 -112 0 18 3 19 21 10
37 -20 34 -1 -7 41 -21 23 -172 164 -334 314 -291 268 -540 516 -540 536 0 6
13 2 30 -8 32 -20 570 -475 789 -666 74 -65 142 -122 152 -128 26 -13 34 7 15
36 -24 36 -344 366 -610 628 -234 231 -283 295 -81 106 529 -494 669 -621 673
-611 2 7 -50 70 -115 140 -65 70 -217 231 -336 359 -119 128 -217 235 -217
239 0 11 30 -17 299 -286 256 -256 464 -450 482 -450 20 0 7 26 -39 79 -26 31
-54 65 -62 76 -14 19 -14 19 6 5 12 -8 58 -48 103 -87 90 -81 127 -96 93 -40
-11 19 -28 47 -38 63 l-19 29 30 -22 c17 -11 39 -30 49 -42 20 -22 36 -27 36
-12 0 14 -160 209 -400 486 -282 327 -340 397 -340 409 1 13 -6 20 239 -265
278 -324 386 -442 495 -540 90 -81 126 -104 126 -80 0 5 -26 45 -58 88 -79
107 -83 115 -26 62 109 -102 164 -139 164 -110 0 4 -38 62 -84 127 -46 66 -82
121 -80 123 2 3 40 -29 83 -70 166 -155 205 -170 118 -46 -71 100 -66 98 54
-24 119 -122 159 -153 159 -124 0 33 -208 322 -431 600 -126 157 -229 289
-229 293 1 12 58 -57 287 -343 196 -244 383 -455 405 -455 18 0 6 39 -27 90
-47 75 -44 83 13 27 72 -71 93 -61 46 22 l-26 46 61 -62 c34 -35 66 -63 71
-63 15 0 12 23 -7 49 -32 46 5 15 62 -51 32 -38 61 -68 66 -68 21 0 17 24 -11
81 -17 33 -30 63 -27 65 2 2 14 -7 27 -21 13 -14 31 -25 40 -25 9 0 25 -9 35
-20 23 -25 39 -26 33 -2 -3 10 -47 80 -97 156 -51 76 -91 139 -89 141 2 2 35
-35 73 -82 73 -89 138 -153 155 -153 6 0 10 10 10 21 0 18 2 19 15 9 22 -18
32 -3 16 23 -41 66 -38 66 22 5 66 -68 82 -78 89 -56 3 7 15 3 36 -12 23 -17
35 -21 43 -13 11 11 2 33 -37 93 -9 14 18 -10 60 -52 42 -43 84 -78 92 -78 20
0 13 12 -90 149 -47 63 -84 116 -81 119 2 3 45 -34 95 -82 50 -47 102 -89 116
-92 14 -4 40 -20 57 -35 36 -33 54 -33 49 1 l-4 22 35 -26 c18 -14 39 -26 45
-26 17 0 15 35 -3 50 -8 7 -15 18 -14 24 0 6 7 1 16 -11 8 -13 22 -23 30 -23
12 0 11 7 -6 36 -30 50 -27 51 21 8 34 -30 44 -35 46 -22 2 9 -5 29 -15 45
l-18 28 33 -27 c45 -37 66 -37 57 0 -5 22 -4 25 6 15 19 -19 37 -16 44 8 5 15
-2 34 -24 64 -38 53 -40 71 -6 49 32 -21 42 -12 24 23 -22 45 -22 46 -10 39 7
-4 11 1 11 13 0 11 -4 23 -10 26 -5 3 -10 11 -10 16 0 6 10 3 22 -5 43 -30 65
-12 32 25 -15 17 -15 21 -1 52 19 40 38 137 37 192 0 22 -7 65 -15 95 -8 30
-16 69 -18 85 -2 25 -4 21 -11 -20 -11 -64 -24 -82 -42 -58 -12 17 -13 17 -20
-2 -4 -11 -13 -27 -20 -35 -6 -8 -18 -35 -24 -60 -11 -41 -13 -43 -26 -25 -8
10 -14 22 -14 26 0 3 -10 6 -22 5 -19 -1 -24 -8 -29 -46 -3 -25 -7 -40 -7 -33
-1 7 -14 24 -28 40 -21 22 -27 25 -34 13 -6 -8 -10 -33 -11 -55 0 -22 -4 -51
-9 -65 l-7 -25 -8 30 c-4 17 -11 46 -16 66 -14 55 -59 65 -59 13 0 -13 -4 -24
-10 -24 -5 0 -10 12 -10 28 0 45 -12 102 -21 102 -5 0 -9 -19 -10 -42 0 -24
-4 -61 -8 -83 l-7 -40 -12 40 c-7 22 -12 50 -12 63 0 12 -4 22 -9 22 -5 0 -12
-39 -16 -87 -4 -49 -11 -97 -15 -108 -9 -25 -15 11 -31 185 -6 69 -15 129 -20
134 -5 6 -9 29 -9 53 0 44 -15 57 -28 26 -10 -27 -20 56 -21 179 -1 59 -6 119
-12 135 l-12 28 -7 -25 c-5 -14 -9 -137 -11 -275 l-4 -250 -2 198 c-3 163 -6
199 -18 203 -12 5 -15 27 -15 106 0 63 -4 97 -10 93 -6 -4 -11 -61 -11 -133
-1 -70 -5 -156 -9 -192 -4 -40 -8 61 -8 258 -1 207 -6 322 -12 322 -6 0 -10
-114 -10 -323 0 -178 -3 -380 -7 -448 -13 -223 -21 -63 -22 409 -1 260 -5 442
-10 442 -10 0 -16 -58 -29 -290 -8 -124 -9 -89 -10 243 -1 250 -6 387 -12 387
-6 0 -10 -146 -11 -417 0 -230 -4 -438 -8 -463 -5 -26 -9 158 -10 433 -1 310
-4 477 -11 477 -6 0 -10 -97 -11 -267 -2 -355 -15 -279 -24 140 -5 180 -12
327 -16 327 -5 0 -9 -145 -9 -322 0 -177 -3 -319 -6 -315 -4 3 -11 166 -18
361 -6 195 -15 358 -19 362 -4 4 -10 4 -14 0 -5 -4 -11 -132 -14 -284 -4 -152
-8 -304 -9 -337 l-3 -60 -8 70 c-4 39 -15 197 -24 353 -18 321 -21 343 -44
340 -13 -3 -16 9 -19 70 -2 39 -7 72 -12 72 -6 0 -10 -198 -10 -527 0 -289 -2
-524 -4 -522 -4 4 -19 288 -36 716 -6 139 -13 260 -16 268 -19 48 -24 -32 -24
-357 0 -199 -2 -359 -5 -357 -2 3 -11 124 -20 270 -24 421 -30 489 -46 489 -5
0 -9 -159 -9 -382 0 -211 -4 -376 -9 -368 -8 15 -36 368 -46 585 -8 177 -16
255 -26 255 -5 0 -9 -77 -9 -172 0 -94 -3 -168 -7 -164 -4 4 -10 97 -13 208
-4 148 -8 202 -17 206 -10 3 -13 -77 -13 -379 0 -210 -2 -380 -5 -377 -3 2
-14 130 -25 284 -23 321 -38 503 -46 557 -5 29 -9 36 -18 27 -7 -7 -13 -100
-16 -288 -3 -152 -7 -267 -8 -255 -1 12 -11 143 -23 290 -11 148 -24 272 -30
278 -5 5 -9 -56 -10 -165 -1 -230 -14 -187 -29 98 -7 122 -16 225 -20 227 -15
9 -20 -142 -21 -600 -2 -502 -7 -515 -34 -80 -17 279 -41 544 -50 553 -17 17
-20 -50 -18 -416 1 -224 0 -402 -2 -397 -2 6 -9 89 -14 185 -18 288 -53 684
-62 695 -5 5 -9 -122 -9 -298 0 -169 -4 -307 -8 -307 -5 0 -14 72 -20 160 -13
166 -48 465 -60 513 -17 67 -27 19 -32 -155 l-5 -183 -9 95 c-16 178 -21 215
-31 212 -6 -1 -10 -89 -10 -237 0 -129 -3 -231 -7 -227 -5 6 -22 197 -44 510
-3 45 -10 82 -15 82 -5 0 -9 -11 -9 -24z m1191 -2643 c13 -16 12 -17 -3 -4
-17 13 -22 21 -14 21 2 0 10 -8 17 -17z m-1679 -362 c157 -126 303 -251 292
-251 -16 0 -444 340 -479 381 l-20 22 32 -18 c18 -11 97 -71 175 -134z m-455
-148 c54 -42 157 -127 230 -190 198 -170 190 -176 -22 -17 -171 128 -342 284
-311 284 3 0 49 -34 103 -77z m616 -351 c143 -120 299 -264 293 -269 -8 -9
-65 38 -256 208 -242 216 -265 253 -37 61z"/>
<path d="M1580 6508 c-14 -17 -27 -36 -29 -42 -2 -6 -9 -14 -14 -18 -7 -4 -6
-60 1 -170 7 -89 14 -291 17 -448 7 -359 30 -779 44 -793 8 -8 11 10 11 60 0
40 5 75 10 78 6 4 10 -17 10 -57 0 -72 8 -110 21 -102 17 10 2 678 -22 979 -6
77 -14 231 -18 342 l-6 202 -25 -31z m14 -413 c3 -167 2 -232 -4 -195 -5 30
-11 168 -14 305 -3 167 -2 232 4 195 5 -30 11 -167 14 -305z m-17 -402 c-3
-10 -5 -4 -5 12 0 17 2 24 5 18 2 -7 2 -21 0 -30z m10 -185 c-2 -24 -4 -7 -4
37 0 44 2 63 4 43 2 -21 2 -57 0 -80z"/>
<path d="M1501 6190 c-1 -124 -4 -220 -6 -215 -4 8 -45 333 -45 350 0 3 -4 4
-8 1 -5 -3 -3 -50 4 -105 35 -266 64 -637 75 -926 6 -191 15 -324 21 -330 13
-12 3 477 -11 600 -6 44 -11 195 -12 335 -1 140 -5 314 -8 385 -7 126 -8 124
-10 -95z"/>
<path d="M1387 6246 c-4 -10 -8 -111 -8 -224 -1 -224 -11 -215 -24 21 -4 84
-11 135 -16 130 -6 -6 0 -149 16 -364 14 -195 29 -468 34 -607 5 -140 11 -256
14 -258 5 -5 -2 1291 -7 1310 -1 6 -5 2 -9 -8z"/>
<path d="M1285 6076 c-11 -40 0 -536 20 -871 19 -335 23 -377 37 -369 23 14
-7 869 -41 1194 -6 64 -9 71 -16 46z m38 -676 c4 -116 3 -161 -2 -120 -12 91
-22 406 -11 350 4 -25 10 -128 13 -230z"/>
<path d="M1218 5964 c-14 -26 -15 -46 -7 -165 5 -74 13 -282 19 -464 11 -386
20 -525 31 -525 12 0 11 179 -2 385 -6 94 -14 312 -17 485 -7 302 -8 314 -24
284z"/>
<path d="M1141 5804 c-11 -33 -11 -83 -2 -255 6 -118 16 -313 21 -434 13 -283
19 -345 32 -345 19 0 -6 802 -31 1015 l-7 60 -13 -41z"/>
<path d="M1070 5645 c-8 -23 -9 -70 -5 -142 12 -190 23 -190 24 0 1 97 -1 177
-3 177 -3 0 -10 -16 -16 -35z"/>
<path d="M1030 5514 c0 -21 7 -95 14 -164 22 -194 29 -276 22 -269 -4 4 -18
91 -31 194 -25 187 -42 260 -33 135 9 -110 80 -624 89 -645 20 -43 -4 381 -37
650 -17 135 -24 166 -24 99z"/>
<path d="M921 5168 c-1 -15 -6 -39 -12 -55 -8 -21 -5 -67 10 -188 11 -88 23
-195 26 -237 4 -44 11 -78 17 -78 7 0 9 20 4 58 -3 31 -11 153 -17 271 -6 117
-14 223 -19 235 -8 20 -9 19 -9 -6z"/>
<path d="M7320 5145 c0 -30 76 -209 153 -360 81 -158 70 -107 -14 68 -39 81
-69 150 -67 153 3 2 29 -39 58 -93 30 -53 56 -91 58 -85 3 10 -175 342 -184
342 -2 0 -4 -11 -4 -25z"/>
<path d="M7243 4941 c13 -65 234 -545 283 -615 30 -43 13 9 -26 80 -22 40 -68
133 -101 206 -102 222 -102 231 2 56 112 -192 139 -234 139 -216 0 8 -44 90
-97 180 -54 90 -118 203 -143 251 -46 88 -67 110 -57 58z"/>
<path d="M7210 4857 c0 -22 317 -657 324 -649 18 17 -3 71 -86 221 -50 91
-122 226 -160 300 -73 145 -78 153 -78 128z"/>
<path d="M7146 4731 c-8 -12 344 -734 363 -745 6 -4 11 -5 11 -1 0 3 -41 87
-91 186 -49 100 -89 183 -86 185 2 2 41 -67 87 -152 47 -86 86 -151 88 -146 4
13 -10 40 -184 359 -174 317 -180 328 -188 314z"/>
<path d="M4415 4620 c-21 -22 -41 -37 -44 -35 -2 3 -15 -5 -28 -17 -13 -12
-23 -18 -23 -14 0 5 -8 2 -17 -5 -15 -13 -16 -12 -11 9 4 12 2 22 -3 22 -5 0
-11 -12 -15 -27 -10 -48 -14 -54 -25 -47 -7 4 -10 -1 -7 -12 2 -12 13 -20 28
-22 45 -4 99 -25 104 -38 3 -8 15 -14 27 -14 22 0 22 0 4 -20 -18 -20 -18 -21
4 -27 l23 -6 -27 -21 -27 -22 38 -26 37 -27 -26 -6 c-14 -4 -31 -13 -38 -21
-9 -11 -5 -16 17 -26 16 -7 30 -13 32 -14 10 -6 -44 -54 -61 -54 -29 0 -17
-34 15 -40 14 -3 36 -17 47 -31 l20 -26 -59 -12 c-69 -14 -82 -27 -50 -51 15
-12 19 -19 11 -24 -6 -4 -10 -14 -9 -21 2 -8 -6 -21 -17 -29 -16 -12 -18 -17
-7 -27 20 -21 14 -26 -34 -34 -63 -9 -74 -14 -74 -34 0 -9 -14 -24 -30 -33
-17 -9 -30 -24 -30 -32 0 -10 -13 -16 -42 -18 -23 -2 -43 -9 -46 -15 -3 -10
17 -13 75 -14 70 -1 161 -14 123 -18 -196 -18 -312 -31 -320 -36 -29 -18 18
-25 173 -25 100 0 166 -4 157 -9 -8 -5 -91 -14 -185 -21 -93 -7 -173 -14 -177
-17 -5 -2 -8 -10 -8 -17 0 -15 -43 -26 -101 -26 -21 0 -50 -5 -66 -12 l-28
-11 30 -7 c17 -4 98 -8 180 -9 165 -2 244 -11 210 -24 -11 -5 -190 -24 -398
-43 -209 -19 -388 -39 -399 -45 -10 -6 -18 -18 -16 -27 1 -9 -9 -29 -23 -44
-24 -25 -33 -28 -100 -29 -41 -1 -87 -4 -104 -8 -35 -7 -48 -41 -16 -41 38 0
22 -17 -21 -23 -23 -3 -45 -13 -50 -21 -5 -9 -16 -16 -24 -16 -9 0 -14 -6 -12
-12 4 -10 73 -14 286 -18 154 -3 284 -8 288 -12 4 -5 4 -8 0 -8 -5 0 -115 -7
-245 -15 -522 -33 -642 -66 -271 -75 224 -5 229 -11 30 -30 -160 -15 -185 -22
-185 -45 0 -17 -10 -21 -64 -27 -74 -8 -91 -13 -91 -28 0 -7 97 -10 288 -10
165 0 281 -4 272 -9 -8 -5 -130 -21 -270 -35 -280 -29 -310 -34 -310 -46 0
-15 23 -16 212 -12 170 4 230 0 216 -13 -2 -3 -69 -12 -149 -20 -203 -21 -229
-28 -229 -61 0 -11 23 -14 108 -14 129 -1 119 -13 -23 -29 -157 -17 -225 -31
-225 -47 0 -11 27 -14 138 -15 170 -1 146 -11 -78 -34 -91 -10 -173 -22 -183
-27 -41 -21 3 -28 186 -29 107 0 183 -4 172 -8 -11 -5 -98 -14 -194 -20 -203
-14 -231 -19 -231 -37 0 -12 57 -14 332 -14 205 0 328 -4 323 -9 -6 -5 -122
-19 -260 -31 -258 -22 -373 -35 -382 -44 -17 -17 19 -26 105 -27 106 -2 110 0
-58 -27 -31 -5 -46 -12 -48 -24 -3 -16 7 -18 113 -18 124 0 147 -13 43 -24
-108 -11 -168 -26 -168 -42 0 -12 33 -14 199 -14 110 0 202 -4 205 -9 3 -4
-52 -16 -122 -26 -178 -24 -226 -36 -230 -57 -3 -17 11 -18 175 -19 199 0 203
-10 13 -28 -175 -17 -199 -25 -148 -48 l23 -11 -25 -5 c-14 -3 -86 -13 -160
-22 -74 -10 -139 -22 -145 -27 -24 -22 35 -28 299 -28 154 0 277 -2 274 -5 -3
-4 -75 -15 -159 -25 -167 -22 -179 -24 -179 -40 0 -7 109 -10 327 -10 190 0
323 -4 318 -9 -6 -5 -111 -21 -235 -35 -124 -15 -253 -32 -287 -37 -64 -11
-91 -29 -77 -51 5 -7 7 -21 6 -31 -3 -16 17 -17 305 -17 195 0 302 -4 292 -10
-9 -5 -123 -21 -255 -35 -304 -32 -397 -46 -385 -58 6 -6 33 -5 73 2 61 10
397 47 683 76 77 7 200 16 273 20 72 4 132 11 132 16 0 5 -93 9 -207 9 -113 0
-204 2 -202 4 2 2 81 9 174 15 186 13 225 18 225 32 0 14 -420 10 -655 -6
-247 -17 -411 -19 -420 -5 -3 6 0 12 7 15 7 2 148 20 313 39 270 32 395 42
708 62 53 3 97 10 97 15 0 5 -216 9 -522 9 -287 0 -519 2 -516 5 3 3 77 12
164 20 87 9 186 20 219 25 33 5 164 11 290 15 256 6 325 12 325 27 0 6 -77 7
-212 4 -456 -12 -1083 -16 -1068 -7 39 24 436 54 760 58 341 3 410 8 410 24 0
7 -141 8 -422 3 -233 -3 -420 -3 -417 0 13 14 377 46 629 56 270 11 300 14
300 31 0 8 -20 9 -62 5 -115 -11 -968 -19 -968 -10 0 11 342 58 530 74 63 5
159 10 212 10 54 0 100 4 103 10 4 7 -143 10 -432 11 -263 0 -428 4 -413 9 39
14 420 40 678 47 127 3 232 10 232 15 0 4 -210 8 -467 9 -279 1 -452 5 -428
10 70 14 601 39 838 39 145 0 227 4 227 10 0 7 -170 10 -489 10 -462 0 -613 9
-413 24 48 4 211 18 362 31 151 13 319 27 373 31 212 15 75 24 -370 24 -256 0
-464 3 -460 6 6 7 467 38 730 49 294 14 160 25 -290 25 -417 1 -524 8 -343 24
190 17 632 46 700 46 41 0 82 5 90 10 19 12 55 11 -390 11 -249 -1 -379 2
-369 8 25 16 445 51 687 58 122 3 222 10 222 15 0 4 -199 8 -442 8 -270 0
-438 4 -432 9 10 10 440 55 632 67 61 4 112 11 112 15 0 5 -12 9 -27 9 -16 0
-140 0 -278 0 -249 0 -363 10 -265 23 39 5 472 50 618 63 28 3 52 10 52 15 0
5 -131 9 -322 9 -201 0 -318 4 -313 9 13 13 326 31 526 31 99 0 159 4 159 10
0 6 -113 10 -317 11 -316 0 -383 10 -163 24 63 3 192 13 285 21 94 7 173 14
178 14 4 0 7 5 7 10 0 6 -121 10 -342 10 -207 0 -337 4 -329 9 8 5 62 12 120
16 270 16 678 47 709 53 18 4 33 12 33 17 -1 6 -98 12 -258 15 -208 4 -242 6
-173 12 47 5 160 8 253 8 104 0 167 4 167 10 0 6 -43 11 -107 11 -88 1 -100 3
-63 10 25 4 83 8 130 8 88 1 130 8 130 21 0 4 -123 6 -272 4 -150 -2 -327 -1
-393 3 -112 7 -116 8 -60 14 33 4 132 8 220 9 88 1 219 6 290 9 129 8 128 8
-90 10 -244 4 -325 13 -215 25 132 14 338 26 448 26 61 0 112 4 112 9 0 14
-95 21 -305 22 -110 0 -191 4 -180 8 11 5 112 16 225 25 113 10 273 26 355 37
83 10 153 19 158 19 4 0 7 6 7 14 0 16 -43 26 -115 26 -29 0 -81 3 -116 7 -86
9 -46 21 77 22 126 1 244 12 244 22 0 5 -21 9 -47 10 -99 2 -101 15 -4 23 105
9 121 13 121 31 0 14 -70 24 -175 26 -112 1 -47 15 105 23 126 7 166 15 141
30 -5 4 -46 9 -90 13 -94 7 -98 23 -6 23 67 0 95 6 95 21 0 5 -52 9 -116 9
-122 0 -146 13 -43 24 34 3 65 9 68 12 9 8 -22 24 -49 24 -20 1 -22 2 -9 10 8
5 62 12 120 16 l104 6 49 47 c53 49 54 51 -23 -56 -46 -63 -14 -55 42 11 31
37 57 64 57 61 0 -4 -30 -49 -66 -101 -46 -66 -63 -99 -56 -106 7 -7 31 12 79
63 220 237 222 234 24 -25 -71 -94 -128 -173 -125 -178 11 -17 40 11 143 141
108 134 176 209 153 166 -6 -11 -79 -105 -162 -209 -83 -104 -149 -193 -147
-199 1 -5 81 76 176 182 95 105 177 191 182 191 11 0 -31 -64 -186 -280 -257
-358 -297 -419 -266 -408 5 2 63 71 128 153 99 125 295 358 349 415 8 8 14 10
14 4 0 -10 -76 -112 -281 -379 -156 -203 -163 -215 -151 -227 11 -11 41 24
295 341 77 95 141 170 144 167 3 -3 -27 -54 -67 -113 -71 -104 -123 -177 -314
-437 -47 -65 -84 -121 -81 -124 10 -11 78 64 235 258 175 216 284 338 295 328
4 -3 -10 -32 -30 -64 -42 -65 -294 -418 -427 -598 -48 -65 -88 -123 -88 -127
0 -36 60 32 329 374 89 115 165 206 168 203 6 -6 -98 -152 -206 -291 -39 -49
-112 -146 -162 -215 -51 -69 -112 -148 -136 -177 -24 -28 -40 -54 -35 -56 9
-7 41 31 189 225 140 185 363 451 370 444 8 -8 -112 -183 -217 -316 -292 -372
-334 -431 -301 -418 13 4 80 89 228 288 142 190 262 335 270 326 6 -6 -97
-163 -313 -477 -162 -235 -181 -265 -170 -276 11 -11 52 38 242 287 90 118
175 229 189 245 52 60 5 -15 -83 -134 -119 -160 -342 -492 -342 -509 0 -7 4
-10 10 -7 5 3 78 97 161 208 137 181 287 372 368 467 40 46 39 24 -1 -42 -60
-100 -334 -513 -401 -605 -66 -91 -85 -130 -50 -102 9 8 82 102 161 209 175
235 274 366 303 400 l21 25 -17 -31 c-9 -16 -117 -167 -240 -334 -122 -167
-230 -318 -240 -337 -19 -35 -14 -58 8 -31 6 9 66 85 131 169 168 217 287 361
293 355 5 -4 -47 -81 -328 -490 -60 -88 -109 -163 -109 -168 0 -23 21 1 84 95
99 145 297 415 385 526 109 135 120 147 121 135 0 -6 -63 -105 -141 -220 -265
-392 -449 -673 -449 -684 0 -33 15 -14 253 325 175 247 391 523 419 534 25 9
-80 -158 -243 -389 -173 -245 -351 -519 -346 -533 2 -6 19 10 38 37 83 120
315 424 433 569 181 221 181 213 1 -43 -56 -80 -133 -190 -172 -245 -38 -55
-109 -154 -156 -220 -48 -66 -87 -127 -86 -135 0 -19 12 -5 215 270 202 272
384 503 392 496 7 -8 -54 -104 -197 -311 -69 -99 -167 -240 -218 -314 -51 -73
-93 -138 -93 -142 0 -29 39 16 197 228 232 313 435 574 441 568 3 -2 -92 -150
-210 -327 -300 -451 -335 -508 -322 -529 10 -17 29 6 147 170 196 275 460 619
487 636 30 19 -5 -44 -145 -255 -199 -300 -395 -612 -395 -627 0 -8 4 -11 10
-8 5 3 71 97 147 208 121 179 360 523 410 591 23 32 38 34 22 4 -7 -13 -78
-131 -159 -263 -246 -403 -333 -565 -302 -565 5 0 102 138 215 307 112 170
233 346 268 393 35 47 67 89 71 95 4 5 9 7 12 4 5 -5 -63 -117 -223 -364 -174
-267 -292 -466 -289 -483 4 -21 49 34 201 248 114 160 371 495 389 506 19 12
-13 -44 -264 -456 -231 -382 -271 -460 -235 -460 18 0 73 78 290 407 188 287
327 482 367 518 l23 20 -23 -44 c-26 -52 -297 -513 -368 -626 -27 -44 -91
-145 -141 -225 -49 -79 -89 -146 -87 -147 2 -2 15 1 29 6 16 6 57 56 113 138
255 373 615 873 629 873 3 0 -2 -14 -10 -31 -19 -35 -288 -468 -459 -737 -104
-164 -113 -182 -84 -165 41 24 78 76 280 393 166 260 280 425 421 608 75 98
96 119 83 87 -13 -36 -272 -444 -455 -720 -110 -165 -198 -301 -196 -303 1 -2
18 4 36 13 23 11 59 51 111 123 297 413 366 507 475 639 67 81 140 168 163
193 l41 45 -22 -45 c-39 -81 -286 -443 -544 -799 -23 -32 -31 -49 -19 -41 23
15 48 48 222 294 260 367 411 613 395 639 -4 6 -27 -12 -51 -39 -93 -102 -327
-394 -409 -509 -130 -181 -324 -445 -329 -445 -9 0 18 43 199 313 302 453 460
727 419 727 -14 0 -282 -356 -391 -519 -45 -67 -84 -121 -86 -121 -3 0 32 60
76 133 45 72 102 164 125 203 41 67 56 114 35 114 -24 0 -336 -423 -625 -850
-79 -116 -120 -168 -97 -123 6 12 52 86 102 164 179 280 479 799 479 829 0 60
-135 -115 -422 -545 -132 -198 -246 -367 -254 -375 -47 -49 15 62 334 588 154
254 194 333 179 349 -9 8 -313 -380 -446 -569 -45 -65 -85 -118 -88 -118 -8 0
39 78 185 305 194 302 229 359 263 426 30 58 33 79 10 64 -24 -15 -257 -335
-395 -545 -82 -124 -153 -229 -158 -235 -29 -29 80 160 265 460 143 231 185
311 170 326 -11 11 -40 -23 -148 -171 -109 -150 -113 -148 -12 5 99 151 128
221 90 213 -21 -4 -227 -258 -373 -460 -57 -79 -130 -179 -162 -223 -127 -174
-45 -38 202 334 250 379 279 426 266 438 -10 11 -46 -29 -174 -192 -123 -158
-164 -207 -146 -175 4 8 35 56 67 105 91 139 126 215 98 215 -6 0 -29 -23 -53
-51 -110 -131 -119 -134 -32 -9 67 98 88 140 76 152 -6 6 -29 -15 -63 -59
-106 -135 -301 -373 -306 -373 -7 0 15 33 105 160 41 58 105 157 143 221 65
109 81 149 61 149 -14 0 -112 -107 -216 -237 -143 -180 -141 -174 30 83 103
155 132 209 120 222 -7 7 -18 -4 -124 -123 l-53 -60 26 52 c46 95 27 87 -76
-34 -147 -174 -142 -162 27 73 109 153 143 209 131 220 -11 11 -43 -23 -138
-148 -50 -65 -92 -118 -95 -118 -6 0 23 50 76 130 97 146 138 230 112 230 -15
0 -113 -109 -221 -245 -160 -200 -158 -187 4 35 103 142 193 273 201 295 4 8
1 15 -5 15 -14 0 -141 -153 -307 -371 -152 -201 -201 -252 -99 -104 180 261
295 434 319 480 24 44 25 51 11 61 -13 10 -11 18 15 70 32 64 27 92 -12 58
l-22 -19 23 35 c35 55 55 99 48 106 -11 11 -33 -13 -168 -182 -71 -90 -134
-166 -140 -169 -6 -4 25 42 67 101 138 193 244 356 244 375 0 10 -6 19 -13 19
-17 0 -161 -148 -246 -252 -35 -43 -66 -78 -68 -78 -3 0 20 35 50 78 176 252
227 333 227 362 0 11 -30 14 -30 3 -1 -5 -30 -39 -66 -78 l-65 -70 85 119 c79
109 99 146 78 146 -13 0 -81 -70 -205 -212 -169 -195 -168 -191 4 52 64 91
127 183 139 204 36 60 11 63 -45 6 -56 -57 -80 -66 -43 -17 61 79 138 200 132
206 -3 3 -40 -30 -81 -74 -72 -77 -85 -84 -38 -20 34 46 56 93 46 99 -8 5
-112 -98 -209 -208 -28 -33 -54 -58 -56 -55 -2 2 25 45 60 94 84 116 98 143
85 159 -6 7 -8 22 -4 34 8 31 -3 27 -39 -13 -53 -61 -42 -31 27 73 37 55 65
107 63 114 -3 8 -33 -15 -81 -61 -43 -41 -80 -72 -83 -69 -3 3 15 38 40 77 51
79 52 81 31 81 -12 0 -12 7 3 45 9 24 13 48 9 52 -4 4 -30 -15 -57 -42 -57
-56 -64 -51 -19 15 40 60 72 121 65 127 -3 3 -22 -9 -43 -26 -33 -27 -40 -29
-49 -16 -10 13 -13 12 -29 -5 -28 -31 -28 -18 0 41 24 53 20 74 -11 48 -13
-10 -13 -8 -4 15 16 42 1 51 -31 20 l-29 -28 0 27 c0 34 -10 34 -40 2 -38 -41
-42 -29 -10 28 16 30 30 57 30 60 0 15 -23 6 -41 -15 l-20 -23 6 23 c9 32 -6
27 -50 -18z m6 -106 c-42 -70 -16 -74 46 -7 43 47 53 47 31 -2 -17 -38 -2 -42
33 -9 l31 29 -7 -27 c-6 -23 -4 -28 10 -28 13 0 16 -5 10 -22 -21 -71 -17 -82
20 -54 11 8 25 12 31 9 7 -2 25 4 41 14 l28 18 -21 -35 c-12 -19 -38 -62 -57
-94 -20 -32 -34 -63 -30 -68 3 -6 34 18 69 53 63 62 85 66 43 8 -15 -21 -19
-38 -14 -56 5 -20 -2 -38 -29 -79 -20 -30 -36 -61 -36 -69 0 -12 -15 -15 -74
-15 -75 0 -114 16 -54 22 43 4 43 22 1 26 -18 2 -33 7 -33 12 0 5 -3 15 -6 23
-4 11 2 16 18 19 36 5 36 37 -1 44 -43 9 -39 21 12 31 44 9 58 35 22 41 -10 3
-30 11 -42 19 -18 12 -21 19 -12 29 6 8 9 23 6 34 -4 16 1 23 19 30 41 16 27
30 -29 30 -44 0 -58 4 -77 25 -13 14 -34 25 -47 25 -14 0 -21 4 -18 10 3 6 16
10 29 10 12 0 40 9 62 20 21 10 41 19 42 20 2 0 -5 -16 -17 -36z m329 -354
c-6 -10 -50 -76 -98 -146 l-89 -127 -89 2 c-49 1 -93 6 -97 10 -4 4 11 13 33
20 28 8 40 17 40 30 0 11 7 22 16 25 23 9 7 26 -24 26 -15 0 -33 4 -41 9 -14
9 32 21 150 39 30 5 64 16 75 26 27 24 128 106 132 106 1 0 -2 -9 -8 -20z"/>
<path d="M7056 4631 c-7 -11 26 -103 127 -352 86 -213 270 -606 275 -589 2 6
-41 107 -96 223 -96 203 -272 630 -272 658 1 25 136 -208 326 -564 43 -81 80
-141 82 -134 4 20 -302 582 -392 720 -31 48 -40 54 -50 38z"/>
<path d="M970 3438 c0 -2 7 -27 15 -55 14 -48 24 -59 183 -191 264 -220 726
-661 709 -678 -29 -30 -311 183 -635 480 -164 149 -181 162 -158 119 8 -16 81
-88 163 -159 170 -148 519 -491 509 -501 -13 -14 -253 174 -461 362 -116 104
-127 113 -119 92 6 -18 162 -158 334 -301 119 -99 269 -206 289 -206 25 0 7
31 -66 111 -132 144 -138 156 -48 83 92 -74 206 -127 227 -106 8 8 -8 31 -53
79 -123 130 -127 141 -23 58 80 -64 149 -103 161 -91 13 13 -184 195 -392 362
-217 173 -454 375 -562 478 -40 38 -73 67 -73 64z m680 -602 c99 -80 253 -216
263 -234 17 -27 -32 8 -151 108 -110 93 -235 213 -202 195 8 -5 49 -36 90 -69z"/>
<path d="M1220 2821 c0 -5 69 -73 153 -149 83 -77 186 -178 228 -223 107 -118
233 -283 220 -287 -18 -6 -105 47 -192 117 -45 36 -91 73 -103 81 -20 15 -20
14 1 -13 27 -35 132 -121 200 -165 61 -39 123 -53 123 -29 0 29 -149 215 -285
356 -140 144 -345 330 -345 312z"/>
<path d="M6518 2233 c-120 -135 -209 -244 -374 -458 -153 -199 -158 -206 -141
-200 8 4 73 81 143 173 207 270 422 528 432 518 7 -8 -120 -193 -275 -399
-107 -143 -125 -172 -92 -146 22 17 91 97 152 177 121 156 153 195 141 172 -8
-16 -154 -218 -188 -260 -44 -55 94 92 168 178 81 96 110 115 61 40 -25 -38
-25 -41 -5 -23 22 20 113 155 140 207 21 43 4 44 -23 1 -27 -41 -77 -92 -77
-77 0 5 9 20 20 34 34 44 21 70 -15 30 -36 -39 -26 -10 20 65 32 51 45 79 38
86 -7 7 -48 -31 -125 -118z"/>
<path d="M3020 1470 c-261 -3 -467 -8 -457 -12 10 -5 141 -8 290 -8 157 0 266
-4 257 -9 -8 -5 -96 -16 -195 -26 -178 -16 -265 -33 -180 -34 40 -1 473 41
615 58 41 6 128 13 193 17 132 7 161 25 35 22 -46 -2 -297 -5 -558 -8z"/>
<path d="M3599 1356 c-4 -3 -181 -13 -607 -32 l-144 -6 44 -20 c50 -23 126
-21 453 12 105 10 254 22 333 26 78 4 142 11 142 15 0 9 -212 13 -221 5z"/>
<path d="M3475 1230 c-60 -4 -161 -8 -222 -9 -62 0 -113 -5 -113 -10 0 -18 60
-22 196 -12 77 6 223 14 327 17 103 4 187 11 187 16 0 9 -211 8 -375 -2z"/>
<path d="M3555 1100 c45 -11 125 -11 125 0 0 6 -32 10 -77 9 -57 -1 -70 -3
-48 -9z"/>
</g>
</svg>
